<?xml version="1.0" encoding="UTF-8" standalone="no"?>
<!-- Created with Inkscape (http://www.inkscape.org/) -->

<svg
   xmlns:dc="http://purl.org/dc/elements/1.1/"
   xmlns:cc="http://creativecommons.org/ns#"
   xmlns:rdf="http://www.w3.org/1999/02/22-rdf-syntax-ns#"
   xmlns:svg="http://www.w3.org/2000/svg"
   xmlns="http://www.w3.org/2000/svg"
   xmlns:sodipodi="http://sodipodi.sourceforge.net/DTD/sodipodi-0.dtd"
   xmlns:inkscape="http://www.inkscape.org/namespaces/inkscape"
   width="210mm"
   height="297mm"
   viewBox="0 0 744.09448819 1052.3622047"
   id="svg2"
   version="1.1"
   inkscape:version="0.91 r13725"
   sodipodi:docname="drawing.svg">
  <defs
     id="defs4" />
  <sodipodi:namedview
     id="base"
     pagecolor="#ffffff"
     bordercolor="#666666"
     borderopacity="1.0"
     inkscape:pageopacity="0.0"
     inkscape:pageshadow="2"
     inkscape:zoom="0.35"
     inkscape:cx="-4872.1429"
     inkscape:cy="62.857143"
     inkscape:document-units="px"
     inkscape:current-layer="layer1"
     showgrid="false"
     inkscape:window-width="1680"
     inkscape:window-height="1001"
     inkscape:window-x="0"
     inkscape:window-y="1"
     inkscape:window-maximized="1" />
  <metadata
     id="metadata7">
    <rdf:RDF>
      <cc:Work
         rdf:about="">
        <dc:format>image/svg+xml</dc:format>
        <dc:type
           rdf:resource="http://purl.org/dc/dcmitype/StillImage" />
        <dc:title></dc:title>
      </cc:Work>
    </rdf:RDF>
  </metadata>
  <g
     inkscape:label="Layer 1"
     inkscape:groupmode="layer"
     id="layer1">
    <path
       style="fill:#000000;fill-opacity:1;stroke:#000000;stroke-width:2.20000005;stroke-miterlimit:4;stroke-dasharray:none;stroke-opacity:1"
       id="path4142"
       d="m -5505.1416,243.6466 c -16.8023,-36.88182 -44.5238,-69.219 -76.7483,-93.62452 -14.3302,-10.85316 -30.0914,-19.6748 -45.1371,-29.5122 -19.0239,-8.7187 -37.3122,-19.26496 -57.0717,-26.156076 -89.2538,-31.127218 -183.5895,-29.133377 -268.155,15.243046 -12.4163,6.51559 -22.2042,17.13036 -33.3063,25.69554 -16.0268,17.20055 -33.6005,33.08013 -48.0806,51.60165 -53.9167,68.96477 -87.5993,159.73613 -96.801,246.47128 -1.9199,18.09711 -1.3097,36.37377 -1.9646,54.56065 1.7226,15.84543 2.2019,31.87589 5.1679,47.53628 7.1244,37.61645 23.1169,72.84318 50.629,99.91973 19.2896,18.98422 28.7114,21.66845 52.168,33.80009 9.5071,2.94527 18.7597,6.89356 28.5212,8.8358 29.6964,5.90868 59.8797,1.41395 87.8302,-9.53954 43.509,-17.05072 36.2198,-15.20827 23.922,-12.68208 53.7494,-37.88208 93.436,-90.72204 132.6619,-142.59592 26.907,-34.92385 51.6164,-71.44522 77.478,-107.12835 14.8392,-20.07597 32.0482,-38.14652 51.6847,-53.52867 21.4641,-15.22947 45.0214,-27.51054 67.7675,-40.57446 2.5505,-1.46487 10.182,-5.89439 7.6327,-4.42743 -9.2784,5.339 -18.5465,10.69572 -27.8198,16.04357 13.8992,-7.95541 27.7984,-15.91082 41.6976,-23.86624 2.0417,-1.06786 8.1128,-4.36881 6.1251,-3.20359 -10.0821,5.91011 -40.4885,23.364 -30.4136,17.44156 13.2646,-7.79759 26.6511,-15.38615 39.9836,-23.06724 1.1817,-0.68082 4.7407,-2.69926 3.5589,-2.01843 -10.9999,6.3374 -22.009,12.65879 -33.0135,18.98819 23.7058,-14.19743 79.4372,-45.43383 8.7108,-5.14176 -0.8476,0.48286 1.6519,-1.03798 2.4818,-1.55079 3.9521,-2.44233 1.1729,-0.63272 5.4742,-3.5329 13.0387,-9.59632 26.1592,-19.07968 39.2645,-28.58467 25.3313,-20.44069 51.3962,-39.9343 77.2405,-59.71503 32.1258,-24.17697 67.5746,-44.20426 103.8659,-61.38471 13.5838,-6.43064 38.6064,-12.28786 52.6382,-16.00075 40.0452,-8.53993 81.9387,-14.72201 122.3349,-4.28883 23.567,6.0867 29.0228,11.06848 49.8245,23.01359 7.2761,6.11312 15.0151,11.71422 21.8282,18.33937 30.2586,29.42358 55.4221,71.14903 73.9053,108.81407 5.1917,10.57961 9.5967,21.52745 14.3951,32.29117 14.9592,41.18074 30.0782,85.69907 24.8082,130.32174 -3.3922,28.72204 -9.7307,38.74299 -20.7241,65.17981 -19.5688,29.40773 -22.6941,37.52777 -48.6978,62.44425 -36.7217,35.18636 -89.0913,63.4999 -134.4873,83.89259 -12.1206,5.44481 -25.2229,8.36802 -37.8344,12.55203 -12.1461,2.37457 -24.1618,5.55764 -36.4383,7.1237 -29.5948,3.77525 -61.3979,2.55801 -90.3008,-5.26731 -20.1289,-5.4498 -24.8933,-9.31635 -42.8086,-18.99168 -6.0777,-4.67053 -12.497,-8.92732 -18.233,-14.0116 -11.1665,-9.89766 -23.875,-24.70384 -33.2126,-36.2462 -14.5884,-18.03287 -27.4205,-37.11974 -40.0585,-56.53137 -20.1805,-31.28389 -36.1164,-64.85908 -51.1861,-98.80589 -9.3007,-19.08313 -16.0239,-39.26696 -24.4716,-58.70272 -4.7926,-11.26086 -12.2857,-20.98861 -19.1831,-30.99244 -5.6055,-7.44871 -7.3904,-15.30903 -7.4913,-24.45665 1.7728,-13.84565 7.3476,-26.95602 12.901,-39.6707 0.6815,-1.77911 1.9344,-4.57455 2.1793,-6.64059 0.064,-0.53653 -0.086,-2.17027 -1.319,-1.63246 -0.8532,0.37212 -2.9788,2.20765 -2.1531,1.778 10.6649,-5.54952 21.1475,-11.44258 31.7213,-17.16387 -2.1242,2.30376 -4.5571,4.35719 -6.3727,6.91128 -7.5052,10.5582 -15.167,26.55996 -20.3642,37.5843 -5.0672,10.74874 -9.9305,21.59409 -14.6845,32.48498 -6.1691,14.1328 -12.0551,28.38749 -18.0827,42.58124 -8.198,18.70795 -16.396,37.4159 -24.594,56.12385 -61.1635,137.58254 -141.2005,265.59354 -231.8077,385.57927 -16.6982,22.11247 -34.2995,43.52831 -51.4493,65.29247 -56.0796,67.40141 -29.2196,35.97801 -80.3093,94.5009 0,0 -28.1345,11.83309 -28.1345,11.83309 l 0,0 c 55.1602,-59.94669 26.3626,-27.78952 86.0604,-96.76831 17.7955,-22.00607 36.1191,-43.59541 53.3866,-66.01821 90.5079,-117.52947 169.0118,-244.49838 225.3518,-382.0261 67.8082,-171.20667 -16.138,41.36627 37.6251,-96.40757 8.9561,-22.95082 17.6014,-46.97728 29.507,-68.67475 1.4972,-2.72847 3.3819,-5.22558 5.0729,-7.83837 13.6185,-7.73016 26.8067,-16.27294 40.8555,-23.19047 3.7235,-1.83347 7.5361,3.87568 7.6559,6.7078 0.097,2.29085 -1.5657,5.80642 -2.2988,7.69774 -5.7732,12.14491 -11.457,24.61983 -13.5773,38.00334 -0.049,8.22963 1.5194,15.43623 6.2994,22.30875 6.8006,10.37823 14.4439,20.33848 19.1898,31.90377 8.1155,19.65942 13.5167,40.40225 22.6161,59.69657 14.5449,33.97985 30.4635,67.33504 50.0068,98.78355 20.4423,32.72054 42.8268,66.39787 72.3201,91.78394 5.6762,4.88582 11.9809,8.99017 17.9713,13.48525 17.3882,9.39609 22.0089,13.11301 41.4797,18.53706 28.0862,7.82407 58.7802,9.22292 87.6094,5.4864 12.0236,-1.55837 23.7825,-4.72998 35.6738,-7.09497 12.4111,-4.19499 24.681,-8.83388 37.2334,-12.58497 2.8513,-0.85204 6.2143,0.19873 8.8484,-1.1858 36.2802,-19.06949 69.5337,-45.83609 94.9465,-78.06177 7.7903,-9.87868 13.997,-20.90905 20.9955,-31.36358 11.3187,-26.47626 17.1399,-34.9226 20.791,-63.69877 5.6382,-44.43724 -8.4719,-88.22112 -23.4061,-129.32009 -4.7654,-10.67939 -9.1124,-21.55544 -14.2961,-32.03818 -18.6059,-37.62617 -43.7385,-77.89696 -74.4831,-106.86339 -6.7868,-6.39436 -14.4597,-11.7777 -21.6896,-17.66654 -20.1215,-11.30434 -26.1057,-16.40325 -48.7652,-22.16816 -40.168,-10.21934 -81.7558,-3.5464 -121.374,5.53312 -9.4174,2.6645 -18.9428,4.97281 -28.252,7.99351 -8.4481,2.74129 -16.1061,8.84946 -24.9775,9.2787 -4.7541,0.23003 16.0011,-9.7728 11.3829,-8.62092 -6.6339,1.65463 -11.9423,6.66727 -17.7853,10.21781 -15.4092,9.36362 -17.5923,11.42167 -32.125,22.01825 -25.3606,19.46357 -50.9577,38.64398 -75.5127,59.12751 -12.6147,9.26965 -25.2948,18.45208 -37.7399,27.94725 -12.7907,10.41326 -38.8111,23.34791 -46.4829,27.87373 -10.9488,6.459 21.9724,-12.79023 32.9818,-19.14533 1.0179,-0.58757 -2.0043,1.22814 -3.0064,1.84221 -12.9673,7.52678 -25.9261,15.0683 -38.9019,22.58035 -1.1141,0.64499 -4.4809,2.53701 -3.3676,1.89059 10.4142,-6.04704 41.7625,-24.00388 31.2707,-18.09261 -13.6065,7.66607 -27.0441,15.62841 -40.615,23.35729 -1.9615,1.11713 -7.9185,4.33477 -5.9794,3.17911 9.5049,-5.66468 19.1216,-11.13966 28.6823,-16.70949 -14.0922,8.13443 -28.1774,16.28117 -42.2767,24.4033 -2.5317,1.45844 -10.1336,5.82152 -7.6163,4.33834 8.9655,-5.28246 17.9611,-10.51385 26.9617,-15.73652 2.7294,-1.58376 -5.43,3.21666 -8.1481,4.81967 -11.807,6.9632 -5.5674,3.02364 -17.2431,10.86447 -20.2118,15.04504 -37.8009,33.06432 -53.2638,52.96815 -27.0533,35.92468 -52.4743,73.06951 -80.3145,108.41107 -39.7192,51.73145 -78.924,105.20909 -132.3412,143.85201 -24.9338,14.98008 -56.6588,36.83796 -86.0027,47.74874 -28.5541,10.6171 -59.1724,14.41203 -89.1632,7.84608 -9.849,-2.15626 -19.151,-6.31249 -28.7265,-9.46873 -23.8106,-12.88069 -32.9268,-15.50664 -52.2436,-35.45025 -27.4268,-28.31678 -42.6897,-64.5349 -48.9505,-103.11954 -2.6045,-16.0511 -2.6899,-32.41062 -4.0349,-48.61592 1.0213,-18.51221 0.8209,-37.13246 3.0639,-55.53663 10.5819,-86.82436 44.3727,-179.16326 97.9378,-248.75992 14.339,-18.63059 31.7227,-34.70587 47.584,-52.05881 58.3359,-38.19336 80.6558,-60.842397 145.3192,-77.82873 67.9327,-17.845132 139.8484,-11.15891 205.8737,10.81863 20.3036,6.758353 39.2923,16.963352 58.9385,25.44503 15.7805,9.5569 32.1849,18.15252 47.3416,28.67071 34.3712,23.8522 63.0696,55.02241 85.4385,90.19651 0,0 -36.8041,20.95567 -36.8041,20.95567 z"
       inkscape:connector-curvature="0" />
    <path
       style="fill:#000000;fill-opacity:1;stroke:#000000;stroke-width:2.20000005;stroke-miterlimit:4;stroke-dasharray:none;stroke-opacity:1"
       id="path4144"
       d="m -5526.9233,343.00644 c -2.6066,53.18949 -5.507,106.5479 -3.9402,159.82227 0.604,20.53889 2.2312,41.03493 3.3469,61.5524 6.9381,66.08847 18.1046,133.01101 46.6864,193.73379 9.1706,19.48298 21.7286,37.18346 32.5929,55.77519 0,0 -24.7363,14.28852 -24.7363,14.28852 l 0,0 c -10.8303,-18.79968 -23.3388,-36.72771 -32.4911,-56.39903 -28.3226,-60.87468 -39.7964,-127.92102 -48.0979,-193.90462 -1.6506,-20.29687 -3.7115,-40.56454 -4.9518,-60.89061 -3.146,-51.55481 -2.1184,-103.30764 -5.9909,-154.82892 0,0 37.582,-19.14899 37.582,-19.14899 z"
       inkscape:connector-curvature="0" />
    <path
       style="fill:#000000;fill-opacity:1;stroke:#000000;stroke-width:2.20000005;stroke-miterlimit:4;stroke-dasharray:none;stroke-opacity:1"
       id="path4150"
       d="m -5245.5765,934.25174 c 19.4494,1.36186 38.9481,-1.27556 57.1927,-8.37175 6.1539,-2.39353 11.9875,-5.54043 17.9813,-8.31064 6.2633,-3.66777 13.869,-5.66794 18.79,-11.00329 3.1466,-3.4115 -15.1141,8.96695 -13.0692,4.80074 3.6864,-7.51034 12.7979,-10.79575 18.848,-16.57412 11.8142,-11.28339 24.5401,-25.36758 34.4154,-38.39862 4.9614,-6.54688 9.31,-13.53631 13.965,-20.30447 15.1491,-25.50071 31.9756,-53.22537 33.3223,-83.79179 0.1574,-3.57131 -0.3551,-7.14072 -0.5326,-10.71108 -0.8181,-2.82394 -1.2141,-5.80619 -2.4544,-8.47182 -6.0436,-12.98873 -21.5595,-15.18431 -34.0997,-16.35663 -2.9971,0.46733 -6.0753,0.56689 -8.9914,1.402 -3.0675,0.87845 -11.5542,5.35917 -8.828,3.70104 8.3978,-5.10783 16.742,-10.53003 25.9048,-14.08769 3.5616,-1.3829 -6.0826,4.67159 -8.7354,7.42127 -8.0351,8.32857 -9.1396,12.0933 -14.8003,22.4266 -13.5018,32.51295 -16.3276,68.03007 -18.6196,102.79662 -0.7617,18.28552 -2.1489,36.74875 0.6982,54.94313 1.3106,8.37574 2.255,10.35347 4.7465,18.10544 5.0016,12.16369 12.556,19.83051 24.708,24.51402 11.7515,3.78012 19.5905,0.69285 29.8837,-5.23645 -9.5416,5.27779 -18.6885,11.34239 -28.6246,15.83337 -2.6352,1.19106 4.4544,-3.70989 6.4443,-5.80825 2.2532,-2.37598 4.3689,-4.89842 6.2503,-7.57836 7.2893,-10.38262 11.8486,-22.37326 16.7117,-33.98204 11.4277,-26.99411 19.7399,-55.29491 32.7412,-81.62866 3.0111,-6.09896 6.4157,-11.99566 9.6235,-17.9935 16.3345,-27.48474 33.7725,-54.53761 55.9201,-77.72744 15.5778,-12.03494 19.5526,-15.71476 47.3071,-25.3166 2.2629,-0.78287 4.1633,2.56927 5.6291,4.46264 7.7934,10.06635 8.786,25.56919 10.7999,37.41653 3.8885,28.12281 3.8271,56.63891 0.46,84.81575 -1.5761,13.18901 -3.6621,22.18409 -6.275,34.95555 -8.3688,35.42535 1.4006,-5.17576 -5.2246,20.60993 -0.2714,1.05623 0.3369,2.72051 -0.6382,3.20874 -12.1023,6.05931 -24.4127,11.98727 -37.3898,15.83102 -2.2625,0.67013 2.6805,-3.88788 3.896,-5.91034 2.1029,-3.49896 4.0362,-7.0971 6.0543,-10.64564 13.5934,-25.88772 27.3019,-51.75403 43.0318,-76.43213 11.2339,-17.62455 14.5248,-21.46866 26.6845,-37.82832 11.9596,-13.93015 23.3047,-29.10375 38.1778,-40.1816 14.3159,-10.66278 31.4623,-16.8772 47.3559,-25.00329 1.7963,1.01697 3.9369,1.58363 5.3888,3.05091 7.4949,7.57445 8.685,23.60928 9.6672,33.22097 1.5144,14.81874 1.7036,27.62516 2.2505,42.62507 1.157,52.40344 -8.4036,104.16492 -16.5369,155.71352 -2.2568,14.38457 -4.3008,28.80159 -6.1644,43.24208 -0.2497,1.93523 -0.4895,3.87175 -0.7212,5.80922 -0.081,0.6778 0.4056,1.75636 -0.217,2.03636 -12.503,5.6233 -25.4665,10.16114 -38.1997,15.24166 0.664,-3.5092 1.1374,-7.05989 1.9921,-10.5276 2.8938,-11.74038 8.8344,-30.27295 12.3607,-41.02466 8.8868,-27.09562 18.8587,-53.68014 29.2495,-80.22652 12.2743,-30.63701 27.6385,-59.99395 48.8222,-85.46364 10.7686,-12.9474 15.1163,-16.23197 27.2153,-27.34855 20.789,-18.04744 44.4527,-30.40239 68.567,-43.92707 1.5898,-0.89166 13.8084,-6.73205 16.7169,-6.91538 2.2359,-0.14093 4.3336,1.13901 6.5004,1.70851 1.645,1.52538 3.716,2.69282 4.9349,4.57613 3.5105,5.42367 4.7442,14.18416 5.3491,20.14839 1.9447,19.17457 -0.5372,37.79919 -2.8675,56.80838 -6.3226,40.93383 -15.996,81.23145 -23.1803,122.01386 -1.1548,8.48419 -2.9956,16.92837 -3.6559,25.48212 -0.043,0.55932 0.6065,1.44088 0.099,1.68003 -12.1728,5.73673 -24.1648,12.27816 -37.1568,15.78439 -2.3744,0.6408 2.1579,-4.42013 3.2368,-6.63019 12.881,-30.83944 27.0172,-61.1684 43.1019,-90.48241 4.8367,-8.8147 10.0148,-17.43771 15.0221,-26.15656 20.6959,-33.27901 41.2305,-66.81479 64.3576,-98.49451 11.6398,-15.94427 14.8532,-19.29217 27.0186,-33.73188 19.9103,-21.70774 36.5959,-30.85413 65.2346,-45.76171 5.4085,-2.81535 12.1344,-2.47835 16.6744,1.9388 2.7292,2.6553 3.9732,6.49687 5.9598,9.7453 1.3165,5.09221 3.0744,10.0903 3.9493,15.27663 4.2087,24.94809 2.7124,50.89488 1.8589,76.01656 -0.096,2.83665 -2.4526,59.18875 -2.5644,61.86847 -1.7154,45.64038 -3.8611,91.35629 -1.1488,136.99473 1.1537,6.87476 0.4501,26.99927 8.0101,31.0064 6.1809,0.79219 12.1986,0.15944 18.136,-1.60129 11.8174,-7.40681 35.081,-13.39182 -20.4726,11.45097 -3.0383,1.3587 5.1381,-4.23549 7.6063,-6.46826 9.7562,-8.82562 11.4339,-11.07492 21.1306,-21.36966 30.7193,-35.40093 54.7461,-76.38032 73.8474,-119.08607 4.6039,-10.29315 8.6195,-20.83948 12.9293,-31.25922 18.7751,-49.366 27.8283,-101.3818 31.952,-153.81472 0.2212,-4.58754 0.5635,-9.17084 0.6636,-13.76262 0.076,-3.47409 0.3571,-10.6067 -1.0892,-14.6537 -0.2635,-0.73736 -0.6698,2.62792 0.062,2.34826 11.9344,-4.56347 22.2978,-13.96896 34.9519,-15.73675 3.7674,-0.5263 -1.5378,7.4508 -2.3068,11.1762 -6.7806,42.33703 -9.5094,85.21509 -11.5608,128.00385 -0.5516,40.58083 -3.6484,81.0229 -6.5549,121.48195 -3.2992,44.51462 -5.1665,89.36912 -15.7352,132.93564 -2.4939,10.2804 -5.7054,20.3732 -8.5581,30.5599 -23.3198,70.7164 -61.2555,134.9775 -103.6258,195.7918 -9.7817,14.0397 -20.0717,27.7182 -30.1075,41.5772 -25.1595,33.1618 -50.9877,65.8701 -78.2617,97.3299 -10.199,11.7643 -23.608,26.6271 -35.1478,37.6092 -4.1221,3.923 -8.5806,7.4767 -12.8709,11.2151 -17.9289,11.2407 -30.734,19.8418 -54.0466,27.1593 -2.7143,0.8519 -5.3677,-2.4557 -7.1319,-4.6874 -9.9351,-12.568 -2.1377,-30.9126 1.4351,-43.7399 3.616,-7.9421 6.5161,-16.251 10.8481,-23.8265 21.1154,-36.9261 51.8506,-68.1589 83.219,-96.3629 33.0374,-29.7047 65.523,-54.1729 100.5707,-81.6973 67.5836,-52.3706 136.0788,-104.6616 194.1081,-167.9412 21.4572,-23.3986 42.3417,-47.52453 60.4393,-73.60861 50.0591,-72.1499 58.9823,-104.82764 93.1982,-185.43974 38.2952,-134.37111 23.4635,-67.15737 45.123,-201.50166 0,0 18.4829,-9.0394 18.4829,-9.0394 l 0,0 c -22.8393,134.99529 -7.7632,67.52376 -45.7142,202.30538 -32.4201,77.65339 -43.4664,115.35728 -90.9125,185.07775 -17.7496,26.08245 -38.4342,50.12938 -59.5995,73.52538 -56.5471,62.5065 -123.3494,114.4099 -189.3396,166.2907 -34.3239,27.3463 -64.5938,50.4205 -96.8342,79.8435 -29.8642,27.2544 -59.1918,57.3068 -78.8795,93.0439 -3.9849,7.2335 -6.5768,15.1512 -9.8652,22.7268 -3.0635,11.5647 -6.6377,18.9994 -4.8171,30.7473 0.3989,2.5735 1.454,5.1784 3.1622,7.1443 1.2948,1.4901 6.7234,1.2285 5.3151,2.6119 -7.6698,7.534 -18.1942,11.5424 -26.5773,18.2738 -3.4493,2.7697 7.784,-4.2057 11.676,-6.3086 4.7109,-3.7975 9.612,-7.3704 14.1326,-11.3926 12.4507,-11.0783 26.9408,-26.3457 37.8735,-38.4246 28.5793,-31.5757 55.4868,-64.6608 81.4554,-98.3996 10.0388,-13.8159 20.3619,-27.4296 30.1164,-41.4477 41.5543,-59.7172 78.1929,-123.3129 100.1405,-193.0159 2.7351,-10.0328 5.8211,-19.9764 8.2052,-30.0984 10.1771,-43.2094 12.2996,-87.64962 14.5732,-131.80858 2.2305,-40.4774 5.3952,-80.89964 6.5482,-121.43161 2.4143,-42.47553 5.4886,-84.91319 9.2559,-127.29003 2.43,-25.17409 -1.5052,-13.23515 38.607,-37.62382 0.9383,-0.57048 1.6106,1.64212 1.8767,2.70747 0.4664,1.86666 0.2737,3.84333 0.2406,5.76708 -0.1522,8.83307 -1.0167,15.64778 -1.8733,24.64493 -6.2039,53.15633 -15.9278,105.99568 -34.6849,156.32709 -4.2624,10.46764 -8.2654,21.04471 -12.7872,31.40292 -18.3813,42.10612 -40.9426,82.91571 -70.013,118.61214 -10.8491,12.36034 -9.0168,10.77277 -19.5667,21.15481 -2.2947,2.25823 -4.301,4.89665 -6.9937,6.66161 -13.5125,8.85705 -27.5651,16.86339 -41.4639,25.10099 -3.9481,2.34 -5.578,2.6831 -9.7169,4.0978 -6.8199,1.3066 -14.2195,2.0769 -20.5713,-1.2986 -8.733,-8.2742 -6.5635,-24.50731 -7.5322,-35.41502 -0.7036,-46.35397 2.8417,-92.629 4.3176,-138.93832 0.7637,-19.25025 1.7768,-42.27815 2.1476,-61.5617 0.4696,-24.41832 1.2098,-49.57043 -4.0066,-73.62107 -1.0147,-4.67856 -2.8701,-9.13438 -4.3052,-13.70157 -3.5734,-5.10104 -4.2394,-9.30304 -11.2781,-9.03232 -2.678,0.103 -9.8717,3.87368 -7.705,2.29643 7.7362,-5.63151 15.9653,-10.71141 24.6833,-14.65573 9.2807,-4.19889 -37.7787,24.99109 -23.0961,20.01074 -12.8204,14.44025 -16.387,17.93409 -28.5324,33.98428 -23.7471,31.38203 -44.4267,65.01905 -65.1209,98.43717 -4.8698,8.59777 -9.9404,17.08483 -14.6093,25.7933 -15.2246,28.39703 -28.4737,57.92853 -39.1321,88.33577 -6.9228,20.08621 -1.0081,7.74216 -41.6564,26.85824 -0.6795,0.31959 0.4661,-1.42968 0.6377,-2.16077 0.4646,-1.97909 0.8746,-3.97091 1.2699,-5.96499 5.8728,-29.62329 -3.3663,15.61955 4.0545,-20.46178 8.8092,-40.70797 18.957,-81.19965 24.8499,-122.46998 1.5499,-15.79239 2.9618,-24.54858 2.5554,-40.03143 -0.216,-8.22975 -1.072,-24.38565 -6.3432,-31.7467 -0.8899,-1.24277 -2.4535,-1.82371 -3.6803,-2.73557 -6.6225,-0.30932 -4.4348,-0.8601 -11.7189,2.35398 -2.9538,1.30333 -11.4105,6.01137 -8.6989,4.25897 7.6705,-4.95729 15.4903,-9.72172 23.6128,-13.89748 9.1227,-4.69 -37.5244,22.86636 -25.0293,17.90309 -12.3537,10.81714 -17.1951,14.35524 -28.2311,27.02618 -21.8696,25.10962 -37.9128,54.31299 -50.4508,85.03288 -15.2449,38.11303 -30.9948,78.18979 -38.3505,118.74744 -0.5441,3.00017 -0.7126,6.05644 -1.0689,9.08466 -12.612,7.2365 -25.1148,14.6666 -37.8358,21.7095 -0.6197,0.343 1.1691,-0.9069 1.4419,-1.5605 0.8177,-1.9593 1.2917,-4.0502 1.7637,-6.12012 3.344,-14.66388 5.271,-29.6472 8.3821,-44.35605 9.3849,-51.13052 19.3764,-102.80959 17.0679,-155.0436 -1.0282,-15.17756 -1.4755,-26.58827 -3.6152,-41.43277 -0.9779,-6.78414 -2.9314,-23.55931 -9.4929,-28.62773 -1.0371,-0.80114 -2.5333,-0.67238 -3.8,-1.00856 10.1363,-6.2815 20.3977,-12.36543 30.4088,-18.8445 2.1463,-1.389 -4.6432,2.17669 -6.7928,3.56056 -16.2108,10.43654 -28.1995,26.35592 -41.0975,40.30321 -12.2669,15.90711 -16.3034,20.47596 -27.4116,37.71629 -15.4171,23.9279 -28.5338,49.24205 -40.4575,75.05836 -1.6899,3.39532 -3.4767,6.74414 -5.0697,10.18596 -0.9442,2.03998 -0.6004,5.10679 -2.5369,6.24831 -54.8949,32.35979 -41.8569,27.86588 -34.8462,6.6207 1.3721,-4.15793 2.4496,-8.40733 3.6744,-12.611 3.1091,-12.69259 5.6521,-21.81891 7.4896,-34.98606 3.8576,-27.64304 3.7816,-55.83247 -0.9514,-83.34843 -2.2115,-10.38785 -3.0468,-17.44112 -7.2313,-26.94056 -1.0274,-2.33245 -2.2232,-4.67517 -3.9593,-6.5412 -1.0024,-1.07744 -5.1003,-1.04169 -3.9538,-1.96432 9.3246,-7.50383 20.2401,-12.78155 30.3122,-19.24736 2.2105,-1.41903 -4.484,2.73745 -6.726,4.10617 -23.603,22.49104 -41.7523,49.67236 -58.4301,77.54478 -3.1672,5.88502 -6.5274,11.67018 -9.5016,17.65506 -12.9394,26.03746 -21.096,54.04962 -31.769,81.01311 -5.8046,14.70957 -11.036,30.25372 -21.2466,42.62891 -12.6739,15.36059 -29.0328,20.14441 -47.8452,31.43384 -11.9354,5.68628 -19.8516,7.37839 -32.4616,2.53818 -12.5989,-6.03155 -20.8006,-14.79899 -25.812,-28.01788 -2.3236,-7.90249 -3.4201,-10.64719 -4.6123,-19.09282 -2.6307,-18.63614 -0.7575,-37.46364 0.1692,-56.13882 2.5691,-35.01105 5.0588,-70.74107 17.3216,-103.94114 5.0154,-10.45472 6.2122,-14.8105 13.6292,-23.50404 2.4938,-2.92304 5.102,-5.8846 8.3326,-7.96472 5.25,-3.38043 35.8475,-25.26711 53.3885,-28.65609 3.1633,-0.61115 6.4261,-0.47429 9.6391,-0.71144 14.3251,2.01383 30.1483,5.71137 36.5643,20.51053 1.3024,3.00412 1.693,6.32595 2.5395,9.48893 0.1192,3.84957 0.5835,7.70392 0.3577,11.54872 -1.8521,31.53803 -19.0607,60.13645 -34.8038,86.49157 -4.6749,6.8973 -9.0459,14.01064 -14.0247,20.6919 -9.656,12.95796 -22.539,27.528 -34.0475,38.8619 -5.9295,5.83957 -11.6831,11.97972 -18.4615,16.80807 -16.5883,11.81605 -34.1314,22.23675 -51.4341,32.97948 -6.2964,3.90923 -12.8951,7.30909 -19.3426,10.96363 -6.2555,2.76029 -12.3576,5.89813 -18.7664,8.28086 -19.3924,7.2099 -39.9073,9.35697 -60.4389,9.31727 0,0 34.1238,-24.79235 34.1238,-24.79235 z"
       inkscape:connector-curvature="0" />
  </g>
</svg>
